<svg width="25" height="24" viewBox="0 0 25 24" fill="none" xmlns="http://www.w3.org/2000/svg">
<path d="M15.5 10C15.5 9.45 15.95 9 16.5 9C17.05 9 17.5 9.45 17.5 10C17.5 10.55 17.05 11 16.5 11C15.95 11 15.5 10.55 15.5 10ZM8.5 9H13.5V7H8.5V9ZM22.5 7.5V14.47L19.68 15.41L18 21H12.5V19H10.5V21H5C5 21 2.5 12.54 2.5 9.5C2.5 6.46 4.96 4 8 4H13C13.91 2.79 15.36 2 17 2C17.83 2 18.5 2.67 18.5 3.5C18.5 3.71 18.46 3.9 18.38 4.08C18.24 4.42 18.12 4.81 18.06 5.23L20.33 7.5H22.5ZM20.5 9.5H19.5L16 6C16 5.35 16.09 4.71 16.26 4.09C15.29 4.34 14.5 5.06 14.17 6H8C6.07 6 4.5 7.57 4.5 9.5C4.5 11.38 5.72 16.15 6.51 19H8.5V17H14.5V19H16.51L18.06 13.85L20.5 13.03V9.5Z" />
</svg>
