<svg width="25" height="20" viewBox="0 0 25 20" fill="none" xmlns="http://www.w3.org/2000/svg">
<g clip-path="url(#clip0)">
<path d="M15.7 5.64237C15.7 5.53111 15.7 4.61986 15.7 4.47151C15.7 2.46886 14.2618 0.799988 12.5 0.799988C10.7382 0.799988 9.29999 2.43178 9.29999 4.47151C9.29999 4.58277 9.29999 5.49403 9.29999 5.64237L12.5 6.79999L15.7 5.64237Z" fill="white" stroke-width="1.5"/>
<path d="M11.5009 8.74433L3.57969 6.42522C3.22144 6.3073 2.8632 6.62175 2.903 6.97551L3.26125 10.8276L3.6195 15.0335L3.69911 15.8589C3.73891 16.3699 4.09716 16.8023 4.57482 16.9595L11.7 19.2L11.5009 8.74433Z" fill="white" stroke-width="1.5"/>
<path d="M21.7403 10.8064L22.097 6.96259C22.1366 6.60958 21.78 6.33503 21.4233 6.41347L13.5377 8.7276L13.3 19.2L20.4723 16.9251C20.9478 16.7682 21.3044 16.3368 21.3441 15.8269L21.4233 15.0032L21.7403 10.8064Z" fill="white" stroke-width="1.5"/>
<path d="M6.09345 14.5L5.79386 12.65C5.73394 12.4 5.55419 12.2 5.2546 12.15L1.29999 11.2L1.59958 14.15C1.6595 14.75 2.25868 15.2 2.91778 15.2H5.31452C5.79386 15.2 6.15337 14.9 6.09345 14.5Z" fill="white" stroke-width="1.5"/>
<path d="M18.9065 14.5L19.2061 12.65C19.266 12.4 19.4458 12.2 19.7454 12.15L23.7 11.2L23.4004 14.15C23.3405 14.75 22.7413 15.2 22.0822 15.2H19.6854C19.2061 15.2 18.8466 14.9 18.9065 14.5Z" fill="white" stroke-width="1.5"/>
</g>
<defs>
<clipPath id="clip0">
<rect width="24" height="20" fill="white" transform="translate(0.5)"/>
</clipPath>
</defs>
</svg>
