<svg width="25" height="24" viewBox="0 0 25 24" fill="none" xmlns="http://www.w3.org/2000/svg">
<path d="M19.5 8H18.5V3H6.5V8H5.5C3.84 8 2.5 9.34 2.5 11V17H6.5V21H18.5V17H22.5V11C22.5 9.34 21.16 8 19.5 8ZM8.5 5H16.5V8H8.5V5ZM16.5 17V19H8.5V15H16.5V17ZM18.5 15V13H6.5V15H4.5V11C4.5 10.45 4.95 10 5.5 10H19.5C20.05 10 20.5 10.45 20.5 11V15H18.5Z" />
<path d="M18.5 12.5C19.0523 12.5 19.5 12.0523 19.5 11.5C19.5 10.9477 19.0523 10.5 18.5 10.5C17.9477 10.5 17.5 10.9477 17.5 11.5C17.5 12.0523 17.9477 12.5 18.5 12.5Z" />
</svg>
