<svg width="25" height="21" viewBox="0 0 25 21" fill="none" xmlns="http://www.w3.org/2000/svg">
<path fill-rule="evenodd" clip-rule="evenodd" d="M15.584 10.5C15.791 10.5 15.9286 10.3612 15.9286 10.1528V8.17367C15.9286 6.54173 14.6191 6.125 13.8955 6.125H11.1045C9.48497 6.125 9.07141 7.4445 9.07141 8.17367V10.1528C9.07141 10.3612 9.20919 10.5 9.41597 10.5H15.584Z" />
<path fill-rule="evenodd" clip-rule="evenodd" d="M12.5 4.375C13.4296 4.375 14.2143 3.60384 14.2143 2.625C14.2143 1.64616 13.4296 0.875 12.5 0.875C11.5702 0.875 10.7857 1.64616 10.7857 2.625C10.7857 3.60384 11.5411 4.375 12.5 4.375Z" />
<path fill-rule="evenodd" clip-rule="evenodd" d="M23.2983 20.125C23.5053 20.125 23.6428 19.9862 23.6428 19.7778V17.7987C23.6428 16.1667 22.3334 15.75 21.6098 15.75H18.8188C17.1993 15.75 16.7857 17.0695 16.7857 17.7987V19.7778C16.7857 19.9862 16.9235 20.125 17.1303 20.125H23.2983Z" />
<path fill-rule="evenodd" clip-rule="evenodd" d="M20.2143 14C21.1439 14 21.9286 13.2288 21.9286 12.25C21.9286 11.2712 21.1439 10.5 20.2143 10.5C19.2845 10.5 18.5 11.2712 18.5 12.25C18.5 13.2288 19.2554 14 20.2143 14Z" />
<path fill-rule="evenodd" clip-rule="evenodd" d="M7.8697 20.125C8.07671 20.125 8.21426 19.9862 8.21426 19.7778V17.7987C8.21426 16.1667 6.9048 15.75 6.18118 15.75H3.3902C1.77068 15.75 1.35712 17.0695 1.35712 17.7987V19.7778C1.35712 19.9862 1.49489 20.125 1.70168 20.125H7.8697Z" />
<path fill-rule="evenodd" clip-rule="evenodd" d="M4.7857 14C5.71528 14 6.49998 13.2288 6.49998 12.25C6.49998 11.2712 5.71528 10.5 4.7857 10.5C3.85592 10.5 3.07141 11.2712 3.07141 12.25C3.07141 13.2288 3.82683 14 4.7857 14Z" />
</svg>
