<svg width="25" height="19" viewBox="0 0 25 19" fill="none" xmlns="http://www.w3.org/2000/svg">
<path d="M2.66268 4.4863C2.42869 4.4863 2.27271 4.68734 2.27271 4.88838C2.27271 5.08941 2.46769 5.29045 2.66268 5.29045C2.70168 5.29045 7.26436 5.08941 10.1502 7.7029C10.2282 7.78331 10.3062 7.82352 10.4231 7.82352C10.5401 7.82352 10.6571 7.78331 10.6961 7.7029C10.8521 7.54207 10.8131 7.30083 10.6571 7.14C7.61534 4.28527 2.85767 4.4461 2.66268 4.4863Z" fill="#009BD5"/>
<path d="M2.66268 7.28037C2.42869 7.28037 2.27271 7.48141 2.27271 7.68244C2.27271 7.88348 2.46769 8.08452 2.66268 8.08452C2.70168 8.08452 7.26436 7.88348 10.1502 10.497C10.2282 10.5774 10.3062 10.6176 10.4231 10.6176C10.5401 10.6176 10.6571 10.5774 10.6961 10.497C10.8521 10.3361 10.8131 10.0949 10.6571 9.93406C7.61534 7.07933 2.85767 7.24016 2.66268 7.28037Z" fill="#009BD5"/>
<path d="M2.66268 10.6334C2.42869 10.6334 2.27271 10.8344 2.27271 11.0355C2.27271 11.2365 2.46769 11.4375 2.66268 11.4375C2.70168 11.4375 7.26436 11.2365 10.1502 13.85C10.2282 13.9304 10.3062 13.9706 10.4231 13.9706C10.5401 13.9706 10.6571 13.9304 10.6961 13.85C10.8521 13.6892 10.8131 13.4479 10.6571 13.2871C7.61534 10.4324 2.85767 10.5932 2.66268 10.6334Z" fill="#009BD5"/>
<path d="M24.6397 0.00457094C24.3248 0.00457094 17.2793 -0.262433 12.5167 3.28491C7.75404 -0.262433 0.66913 0.00457094 0.393606 0.00457094C0.196803 0.00457094 0 0.195288 0 0.386005V15.2238C0 15.3382 0.0393606 15.4145 0.118082 15.4908C0.196803 15.5671 0.314885 15.6434 0.432966 15.6052C0.511688 15.6052 7.75404 15.3382 12.2805 18.9237C12.2805 18.9237 12.2805 18.9237 12.3199 18.9237L12.3592 18.9619C12.3986 19 12.4773 19 12.5167 19C12.556 19 12.6347 19 12.6741 18.9619L12.7135 18.9237C12.7135 18.9237 12.7135 18.9237 12.7528 18.9237C17.3187 15.3764 24.561 15.6052 24.6004 15.6052C24.7184 15.6052 24.7972 15.5671 24.8759 15.4908C24.9546 15.4145 24.994 15.3382 24.994 15.2238V0.386005C25.0333 0.195288 24.8759 0.00457094 24.6397 0.00457094ZM0.787212 14.8424V0.76744C2.32227 0.76744 8.187 0.9963 12.1231 3.97149V17.8938C8.02956 15.0712 2.51908 14.8424 0.865933 14.8424C0.826572 14.8424 0.826572 14.8424 0.787212 14.8424ZM24.2461 14.8424C22.6717 14.8424 17.0825 15.0331 12.9103 17.8557V3.97149C16.8463 0.9963 22.7111 0.76744 24.2461 0.76744V14.8424Z" fill="#009BD5"/>
<path d="M14.614 7.82352C14.6916 7.82352 14.8081 7.78316 14.8857 7.70245C17.7196 5.07912 22.3003 5.28091 22.3391 5.28091C22.572 5.28091 22.7273 5.11948 22.7273 4.87732C22.7273 4.63517 22.572 4.47373 22.3391 4.47373C22.145 4.47373 17.4478 4.27194 14.3423 7.09706C14.187 7.2585 14.1482 7.50065 14.3034 7.66209C14.3811 7.78316 14.4975 7.82352 14.614 7.82352Z" fill="#009BD5"/>
<path d="M14.614 10.6176C14.6916 10.6176 14.8081 10.5772 14.8857 10.4965C17.7196 7.87319 22.3003 8.07498 22.3391 8.07498C22.572 8.07498 22.7273 7.91354 22.7273 7.67139C22.7273 7.42924 22.572 7.2678 22.3391 7.2678C22.145 7.2678 17.4478 7.06601 14.3423 9.89113C14.187 10.0526 14.1482 10.2947 14.3034 10.4562C14.3811 10.5772 14.4975 10.6176 14.614 10.6176Z" fill="#009BD5"/>
<path d="M14.614 13.9706C14.6916 13.9706 14.8081 13.9303 14.8857 13.8495C17.7196 11.2262 22.3003 11.428 22.3391 11.428C22.572 11.428 22.7273 11.2666 22.7273 11.0244C22.7273 10.7823 22.572 10.6208 22.3391 10.6208C22.145 10.6208 17.4478 10.419 14.3423 13.2442C14.187 13.4056 14.1482 13.6477 14.3034 13.8092C14.3811 13.9303 14.4975 13.9706 14.614 13.9706Z" fill="#009BD5"/>
</svg>
