<svg width="21" height="25" viewBox="0 0 21 25" fill="none" xmlns="http://www.w3.org/2000/svg">
<path d="M11.9388 14.6344C12.0555 14.44 12.0944 14.2456 12.0944 14.0122C12.0944 13.429 11.7055 12.9235 11.1611 12.7291V6.04094C11.1611 5.80764 11.0055 5.6521 10.7722 5.6521C10.5388 5.6521 10.3833 5.80764 10.3833 6.04094V12.7291C9.83884 12.8846 9.44995 13.3901 9.44995 14.0122C9.44995 14.7511 10.0333 15.3343 10.7722 15.3343C11.0055 15.3343 11.2 15.2565 11.3944 15.1788L16.1388 19.9227C16.2166 20.0004 16.3333 20.0393 16.4111 20.0393C16.4888 20.0393 16.6055 20.0004 16.6833 19.9227C16.8388 19.7671 16.8388 19.5338 16.6833 19.3783L11.9388 14.6344ZM10.2277 14.0122C10.2277 13.7012 10.4611 13.4679 10.7722 13.4679C11.0833 13.4679 11.3166 13.7012 11.3166 14.0122C11.3166 14.3233 11.0833 14.5566 10.7722 14.5566C10.4611 14.5566 10.2277 14.3233 10.2277 14.0122Z" fill="#009BD5"/>
<path d="M18.2557 6.72581L19.1307 5.8605L19.8864 6.60782C19.9659 6.68648 20.0852 6.72581 20.1648 6.72581C20.2443 6.72581 20.3636 6.68648 20.4432 6.60782C20.6023 6.45049 20.6023 6.2145 20.4432 6.05717L18.375 4.01189C18.2159 3.85456 17.9773 3.85456 17.8182 4.01189C17.6591 4.16922 17.6591 4.40521 17.8182 4.56254L18.5341 5.27052L17.6591 6.17516C15.8693 4.52321 13.483 3.46124 10.8977 3.38257V2.35993H12.7273C12.9659 2.35993 13.125 2.20261 13.125 1.96661V0.393322C13.125 0.157329 12.9659 0 12.7273 0H8.27273C8.03409 0 7.875 0.157329 7.875 0.393322V1.96661C7.875 2.20261 8.03409 2.35993 8.27273 2.35993H10.1023V3.38257C7.35795 3.50057 4.89205 4.60187 3.10227 6.41116C3.10227 6.41116 3.10227 6.41116 3.0625 6.41116C3.02273 6.41116 3.0625 6.41116 3.0625 6.45049C1.15341 8.33844 0 10.9344 0 13.7663C0 16.5982 1.15341 19.2335 3.0625 21.0821C3.0625 21.0821 3.0625 21.0821 3.0625 21.1214C3.0625 21.1607 3.0625 21.1214 3.10227 21.1214C5.01136 23.0094 7.63636 24.15 10.5 24.15C16.3068 24.15 21 19.4695 21 13.7663C21 11.0524 19.9659 8.57443 18.2557 6.72581ZM8.67045 0.786645H12.3295V1.57329H8.67045V0.786645ZM10.8977 23.3634V21.0821C10.8977 20.8461 10.7386 20.6888 10.5 20.6888C10.2614 20.6888 10.1023 20.8461 10.1023 21.0821V23.3634C7.71591 23.2847 5.56818 22.3407 3.89773 20.8068L5.52841 19.1941C5.6875 19.0368 5.6875 18.8008 5.52841 18.6435C5.36932 18.4862 5.13068 18.4862 4.97159 18.6435L3.34091 20.2561C1.82955 18.6435 0.875 16.4802 0.755682 14.1203H3.0625C3.30114 14.1203 3.46023 13.9629 3.46023 13.727C3.46023 13.491 3.30114 13.3336 3.0625 13.3336H0.755682C0.835227 10.9737 1.78977 8.84976 3.34091 7.1978L4.97159 8.81042C5.05114 8.88909 5.17045 8.92842 5.25 8.92842C5.32955 8.92842 5.44886 8.88909 5.52841 8.81042C5.6875 8.65309 5.6875 8.4171 5.52841 8.25977L3.89773 6.64715C5.64773 5.07386 7.95455 4.09055 10.5 4.09055C13.0455 4.09055 15.3523 5.07386 17.1023 6.64715L15.4716 8.25977C15.3125 8.4171 15.3125 8.65309 15.4716 8.81042C15.5511 8.88909 15.6705 8.92842 15.75 8.92842C15.8295 8.92842 15.9489 8.88909 16.0284 8.81042L17.5398 7.3158C17.5795 7.3158 17.6193 7.27647 17.6989 7.23713C19.2102 8.84976 20.125 10.9737 20.2443 13.3336H17.9375C17.6989 13.3336 17.5398 13.491 17.5398 13.727C17.5398 13.9629 17.6989 14.1203 17.9375 14.1203H20.2443C20.0057 19.1548 15.9489 23.1667 10.8977 23.3634Z" fill="#009BD5"/>
</svg>
