<svg width="25" height="24" viewBox="0 0 25 24" fill="none" xmlns="http://www.w3.org/2000/svg">
<g clip-path="url(#clip0)">
<path d="M22.5 9V7H20.5V9H18.5V11H20.5V13H22.5V11H24.5V9H22.5Z" fill="white"/>
<path d="M8.5 12C10.71 12 12.5 10.21 12.5 8C12.5 5.79 10.71 4 8.5 4C6.29 4 4.5 5.79 4.5 8C4.5 10.21 6.29 12 8.5 12ZM8.5 6C9.6 6 10.5 6.9 10.5 8C10.5 9.1 9.6 10 8.5 10C7.4 10 6.5 9.1 6.5 8C6.5 6.9 7.4 6 8.5 6Z" fill="white"/>
<path d="M8.5 13C5.83 13 0.5 14.34 0.5 17V20H16.5V17C16.5 14.34 11.17 13 8.5 13ZM14.5 18H2.5V17.01C2.7 16.29 5.8 15 8.5 15C11.2 15 14.3 16.29 14.5 17V18Z" fill="white"/>
<path d="M13.01 4.0498C13.93 5.1098 14.5 6.4898 14.5 7.9998C14.5 9.5098 13.93 10.8898 13.01 11.9498C14.97 11.6998 16.5 10.0398 16.5 7.9998C16.5 5.9598 14.97 4.2998 13.01 4.0498Z" fill="white"/>
<path d="M17.03 13.8301C17.92 14.6601 18.5 15.7001 18.5 17.0001V20.0001H20.5V17.0001C20.5 15.5501 18.91 14.4901 17.03 13.8301Z" fill="white"/>
</g>
<defs>
<clipPath id="clip0">
<rect width="24" height="24" fill="white" transform="translate(0.5)"/>
</clipPath>
</defs>
</svg>
