<svg width="23" height="20" viewBox="0 0 23 20" fill="none" xmlns="http://www.w3.org/2000/svg">
<path fill-rule="evenodd" clip-rule="evenodd" d="M14.4556 9.85714C14.654 9.85714 14.7858 9.72681 14.7858 9.5312V7.67324C14.7858 6.14122 13.5309 5.75 12.8374 5.75H10.1627C8.61069 5.75 8.21436 6.98872 8.21436 7.67324V9.5312C8.21436 9.72681 8.34639 9.85714 8.54455 9.85714H14.4556Z" stroke="#009BD5"/>
<path fill-rule="evenodd" clip-rule="evenodd" d="M11.5 4.10712C12.3909 4.10712 13.1429 3.38319 13.1429 2.46426C13.1429 1.54535 12.3909 0.821411 11.5 0.821411C10.609 0.821411 9.85718 1.54535 9.85718 2.46426C9.85718 3.38319 10.5811 4.10712 11.5 4.10712Z" stroke="#009BD5"/>
<path fill-rule="evenodd" clip-rule="evenodd" d="M21.8483 18.8928C22.0468 18.8928 22.1786 18.7624 22.1786 18.5668V16.7089C22.1786 15.1769 20.9236 14.7856 20.2302 14.7856H17.5555C16.0035 14.7856 15.6072 16.0244 15.6072 16.7089V18.5668C15.6072 18.7624 15.7392 18.8928 15.9373 18.8928H21.8483Z" stroke="#009BD5"/>
<path fill-rule="evenodd" clip-rule="evenodd" d="M18.8928 13.1428C19.7837 13.1428 20.5358 12.419 20.5358 11.5C20.5358 10.5812 19.7837 9.85718 18.8928 9.85718C18.0018 9.85718 17.25 10.5812 17.25 11.5C17.25 12.419 17.974 13.1428 18.8928 13.1428Z" stroke="#009BD5"/>
<path fill-rule="evenodd" clip-rule="evenodd" d="M7.06276 18.8928C7.26114 18.8928 7.39297 18.7624 7.39297 18.5668V16.7089C7.39297 15.1769 6.13806 14.7856 5.44459 14.7856H2.7699C1.21786 14.7856 0.821533 16.0244 0.821533 16.7089V18.5668C0.821533 18.7624 0.95357 18.8928 1.15174 18.8928H7.06276Z" stroke="#009BD5"/>
<path fill-rule="evenodd" clip-rule="evenodd" d="M4.10721 13.1428C4.99806 13.1428 5.75007 12.419 5.75007 11.5C5.75007 10.5812 4.99806 9.85718 4.10721 9.85718C3.21617 9.85718 2.46436 10.5812 2.46436 11.5C2.46436 12.419 3.1883 13.1428 4.10721 13.1428Z" stroke="#009BD5"/>
<path d="M11.455 9.85718L11.5002 12.9375L7.39307 16.0178" stroke="#009BD5"/>
<path d="M11.5452 9.85718L11.5 12.9375L15.6072 16.0178" stroke="#009BD5"/>
</svg>
