<svg width="20" height="21" viewBox="0 0 20 21" fill="none" xmlns="http://www.w3.org/2000/svg">
<path d="M9.16675 6.33341H10.8334V8.00008H9.16675V6.33341ZM9.16675 9.66675H10.8334V14.6667H9.16675V9.66675ZM10.0001 2.16675C5.40008 2.16675 1.66675 5.90008 1.66675 10.5001C1.66675 15.1001 5.40008 18.8334 10.0001 18.8334C14.6001 18.8334 18.3334 15.1001 18.3334 10.5001C18.3334 5.90008 14.6001 2.16675 10.0001 2.16675ZM10.0001 17.1667C6.32508 17.1667 3.33341 14.1751 3.33341 10.5001C3.33341 6.82508 6.32508 3.83341 10.0001 3.83341C13.6751 3.83341 16.6667 6.82508 16.6667 10.5001C16.6667 14.1751 13.6751 17.1667 10.0001 17.1667Z" fill="#8089A6"/>
</svg>
