<svg width="22" height="22" viewBox="0 0 22 22" fill="none" xmlns="http://www.w3.org/2000/svg">
<path d="M11 11C9.99163 11 9.16663 10.175 9.16663 9.16671C9.16663 8.15837 9.99163 7.33337 11 7.33337C12.0083 7.33337 12.8333 8.15837 12.8333 9.16671C12.8333 10.175 12.0083 11 11 11ZM16.5 9.35004C16.5 6.02254 14.0708 3.66671 11 3.66671C7.92913 3.66671 5.49996 6.02254 5.49996 9.35004C5.49996 11.495 7.28746 14.3367 11 17.7284C14.7125 14.3367 16.5 11.495 16.5 9.35004ZM11 1.83337C14.85 1.83337 18.3333 4.78504 18.3333 9.35004C18.3333 12.3934 15.8858 15.9959 11 20.1667C6.11413 15.9959 3.66663 12.3934 3.66663 9.35004C3.66663 4.78504 7.14996 1.83337 11 1.83337Z" fill="#3F4851"/>
</svg>
