<?xml version="1.0" encoding="UTF-8" standalone="no"?>
<svg
   xmlns:dc="http://purl.org/dc/elements/1.1/"
   xmlns:cc="http://creativecommons.org/ns#"
   xmlns:rdf="http://www.w3.org/1999/02/22-rdf-syntax-ns#"
   xmlns:svg="http://www.w3.org/2000/svg"
   xmlns="http://www.w3.org/2000/svg"
   xmlns:sodipodi="http://sodipodi.sourceforge.net/DTD/sodipodi-0.dtd"
   xmlns:inkscape="http://www.inkscape.org/namespaces/inkscape"
   version="1.1"
   id="svg2"
   xml:space="preserve"
   width="1056"
   height="816"
   viewBox="0 0 1056 816"
   sodipodi:docname="rfms_horizontal_vector.ai"><metadata
     id="metadata8"><rdf:RDF><cc:Work
         rdf:about=""><dc:format>image/svg+xml</dc:format><dc:type
           rdf:resource="http://purl.org/dc/dcmitype/StillImage" /></cc:Work></rdf:RDF></metadata><defs
     id="defs6"><clipPath
       clipPathUnits="userSpaceOnUse"
       id="clipPath18"><path
         d="M 0,612 H 792 V 0 H 0 Z"
         id="path16" /></clipPath></defs><sodipodi:namedview
     pagecolor="#ffffff"
     bordercolor="#666666"
     borderopacity="1"
     objecttolerance="10"
     gridtolerance="10"
     guidetolerance="10"
     inkscape:pageopacity="0"
     inkscape:pageshadow="2"
     inkscape:window-width="640"
     inkscape:window-height="480"
     id="namedview4" /><g
     id="g10"
     inkscape:groupmode="layer"
     inkscape:label="rfms_horizontal_vector"
     transform="matrix(1.3333333,0,0,-1.3333333,0,816)"><g
       id="g12"><g
         id="g14"
         clip-path="url(#clipPath18)"><g
           id="g20"
           transform="translate(276.6479,316.0713)"><path
             d="m 0,0 c -1.792,0.413 -3.723,0.55 -5.515,0.55 -9.378,0 -17.514,-4.55 -17.514,-19.168 V -49.646 H -41.37 v 67.848 h 17.789 V 8.135 c 4.138,8.964 13.515,10.619 19.308,10.619 1.516,0 2.756,-0.138 4.273,-0.276 z"
             style="fill:#f0513c;fill-opacity:1;fill-rule:nonzero;stroke:none"
             id="path22" /></g><g
           id="g24"
           transform="translate(332.6333,308.0728)"><path
             d="M 0,0 C -0.415,6.619 -4.688,13.376 -15.17,13.376 -24.685,13.376 -29.925,6.067 -30.338,0 Z m 17.1,-22.204 c -3.309,-11.859 -14.342,-21.512 -30.891,-21.512 -18.753,0 -35.026,13.377 -35.026,36.268 0,21.651 15.996,35.717 33.372,35.717 21.099,0 33.511,-13.239 33.511,-35.165 0,-2.619 -0.277,-5.24 -0.277,-5.653 h -48.541 c 0.414,-8.826 7.998,-15.446 17.099,-15.446 8.688,0 13.238,4.275 15.445,10.343 z"
             style="fill:#f0513c;fill-opacity:1;fill-rule:nonzero;stroke:none"
             id="path26" /></g><g
           id="g28"
           transform="translate(403.0967,293.8672)"><path
             d="M 0,0 V 3.034 L -15.307,0.69 c -4.826,-0.69 -8.411,-3.171 -8.411,-8.549 0,-4 2.896,-7.861 8.825,-7.861 C -7.171,-15.72 0,-11.996 0,0 m -21.787,11.584 16.684,2.482 C -1.241,14.618 0,16.549 0,18.894 c 0,4.826 -3.723,8.825 -11.445,8.825 -8.136,0 -12.411,-5.102 -12.963,-11.032 l -16.272,3.448 c 1.102,10.618 10.755,22.34 29.096,22.34 21.514,0 29.513,-12.136 29.513,-25.788 v -33.372 c 0,-3.723 0.413,-8.413 0.827,-10.756 H 1.932 c -0.414,1.792 -0.69,5.516 -0.69,8.135 -3.448,-5.378 -9.93,-10.067 -19.995,-10.067 -14.481,0 -23.307,9.93 -23.307,20.41 0,12.274 8.964,18.756 20.273,20.547"
             style="fill:#f0513c;fill-opacity:1;fill-rule:nonzero;stroke:none"
             id="path30" /></g><g
           id="g32"
           transform="translate(469.4248,281.1807)"><path
             d="M 0,0 C 9.376,0 16.685,7.172 16.685,19.444 16.685,31.58 9.376,38.337 0,38.337 c -9.378,0 -16.824,-6.895 -16.824,-19.03 C -16.824,7.172 -9.792,0 0,0 m 34.476,-2.481 c 0,-4.552 0.137,-9.516 0.55,-12.274 H 17.513 c -0.413,1.517 -0.689,4.688 -0.689,7.86 -3.173,-5.378 -9.792,-9.514 -19.03,-9.514 -19.308,0 -33.097,15.168 -33.097,35.716 0,19.858 13.376,35.441 32.544,35.441 11.584,0 17.377,-4.827 19.169,-8.413 v 38.751 h 18.066 z"
             style="fill:#f0513c;fill-opacity:1;fill-rule:nonzero;stroke:none"
             id="path34" /></g><g
           id="g36"
           transform="translate(526.4951,305.3657)"><path
             d="M 0,0 V 29 H 18.692 V 22.865 H 6.463 V 16.73 H 17.221 V 10.84 H 6.503 V 0 Z"
             style="fill:#00aeef;fill-opacity:1;fill-rule:nonzero;stroke:none"
             id="path38" /></g><g
           id="g40"
           transform="translate(562.9463,311.1328)"><path
             d="m 0,0 c 4.05,0 8.345,2.701 8.345,8.753 0,6.054 -4.295,8.795 -8.345,8.795 -4.049,0 -8.385,-2.741 -8.385,-8.795 C -8.385,2.701 -4.049,0 0,0 m 0,23.848 c 8.14,0 15.053,-5.931 15.053,-15.135 C 15.053,-0.45 8.14,-6.381 0,-6.381 c -8.181,0 -15.094,5.931 -15.094,15.094 0,9.204 6.913,15.135 15.094,15.135"
             style="fill:#00aeef;fill-opacity:1;fill-rule:nonzero;stroke:none"
             id="path42" /></g><g
           id="g44"
           transform="translate(592.8965,321.7271)"><path
             d="M 0,0 C 2.659,0 4.09,1.433 4.09,3.518 4.09,5.686 2.659,7.035 0,7.035 H -3.804 V 0 Z m -1.514,-5.563 h -2.29 v -10.798 h -6.463 v 29 H 1.228 c 5.685,0 9.407,-3.967 9.407,-9.08 0,-3.928 -2.127,-6.913 -5.727,-8.181 l 5.891,-11.739 H 3.682 Z"
             style="fill:#00aeef;fill-opacity:1;fill-rule:nonzero;stroke:none"
             id="path46" /></g><g
           id="g48"
           transform="translate(644.8936,305.3657)"><path
             d="M 0,0 V 19.225 L -7.567,0 h -5.236 L -20.37,18.979 V 0 h -6.136 v 29 h 8.427 L -10.104,9.408 -2.537,29 H 6.34 V 0 Z"
             style="fill:#00aeef;fill-opacity:1;fill-rule:nonzero;stroke:none"
             id="path50" /></g><g
           id="g52"
           transform="translate(654.8018,334.3662)"><path
             d="M 0,0 H 7.566 L 13.498,-10.757 19.511,0 h 7.198 L 16.524,-16.892 V -29 h -6.462 v 12.108 z"
             style="fill:#00aeef;fill-opacity:1;fill-rule:nonzero;stroke:none"
             id="path54" /></g><g
           id="g56"
           transform="translate(540.6475,285.4561)"><path
             d="m 0,0 c -0.204,1.31 -1.309,3.641 -4.826,3.641 -2.414,0 -3.968,-1.514 -3.968,-3.11 0,-1.43 0.858,-2.412 2.863,-2.78 l 3.886,-0.737 c 5.523,-0.981 8.386,-4.621 8.386,-8.712 0,-4.54 -3.805,-9.163 -10.717,-9.163 -8.059,0 -11.413,5.196 -11.862,9.286 l 5.93,1.43 c 0.204,-2.657 2.045,-4.989 6.013,-4.989 2.577,0 4.091,1.227 4.091,3.027 0,1.473 -1.187,2.536 -3.109,2.904 l -3.967,0.737 c -4.949,0.94 -7.895,4.212 -7.895,8.508 0,5.439 4.826,9.325 10.39,9.325 7.28,0 9.938,-4.336 10.594,-7.73 z"
             style="fill:#0070a6;fill-opacity:1;fill-rule:nonzero;stroke:none"
             id="path58" /></g><g
           id="g60"
           transform="translate(549.6943,279.6475)"><path
             d="m 0,0 c 0,9.041 6.913,15.176 14.971,15.176 8.712,0 12.515,-5.646 13.498,-9.776 L 22.374,3.479 C 21.924,5.481 20.083,8.877 14.971,8.877 11.044,8.877 6.708,6.096 6.708,0 c 0,-5.439 4.009,-8.589 8.345,-8.589 5.03,0 7.075,3.354 7.607,5.441 l 6.176,-1.76 C 27.855,-8.917 24.051,-15.053 15.053,-15.053 6.708,-15.053 0,-9.038 0,0"
             style="fill:#0070a6;fill-opacity:1;fill-rule:nonzero;stroke:none"
             id="path62" /></g><g
           id="g64"
           transform="translate(600.9951,265.209)"><path
             d="M 0,0 V 11.535 H -11.576 V 0 h -6.462 v 29.001 h 6.462 V 17.63 H 0 V 29.001 H 6.503 V 0 Z"
             style="fill:#0070a6;fill-opacity:1;fill-rule:nonzero;stroke:none"
             id="path66" /></g><g
           id="g68"
           transform="translate(627.1807,270.9756)"><path
             d="m 0,0 c 4.05,0 8.345,2.701 8.345,8.754 0,6.054 -4.295,8.795 -8.345,8.795 -4.049,0 -8.385,-2.741 -8.385,-8.795 C -8.385,2.701 -4.049,0 0,0 m 0,23.848 c 8.141,0 15.053,-5.931 15.053,-15.134 0,-9.163 -6.912,-15.095 -15.053,-15.095 -8.18,0 -15.093,5.932 -15.093,15.095 0,9.203 6.913,15.134 15.093,15.134"
             style="fill:#0070a6;fill-opacity:1;fill-rule:nonzero;stroke:none"
             id="path70" /></g><g
           id="g72"
           transform="translate(660.2803,270.9756)"><path
             d="m 0,0 c 4.05,0 8.345,2.701 8.345,8.754 0,6.054 -4.295,8.795 -8.345,8.795 -4.05,0 -8.386,-2.741 -8.386,-8.795 C -8.386,2.701 -4.05,0 0,0 m 0,23.848 c 8.14,0 15.053,-5.931 15.053,-15.134 C 15.053,-0.449 8.14,-6.381 0,-6.381 c -8.181,0 -15.094,5.932 -15.094,15.095 0,9.203 6.913,15.134 15.094,15.134"
             style="fill:#0070a6;fill-opacity:1;fill-rule:nonzero;stroke:none"
             id="path74" /></g><g
           id="g76"
           transform="translate(679.9639,265.209)"><path
             d="M 0,0 V 29.001 H 6.462 V 6.177 H 18.979 V 0 Z"
             style="fill:#0070a6;fill-opacity:1;fill-rule:nonzero;stroke:none"
             id="path78" /></g><g
           id="g80"
           transform="translate(151.4004,256.625)"><path
             d="M 0,0 H -6.042 L -7.26,55.644 h 8.479 z"
             style="fill:#0070a6;fill-opacity:1;fill-rule:nonzero;stroke:none"
             id="path82" /></g><g
           id="g84"
           transform="translate(166.7739,325.645)"><path
             d="m 0,0 c 0.059,0.665 0.092,1.338 0.092,2.021 0,11.362 -8.277,20.573 -18.486,20.573 -10.21,0 -18.486,-9.211 -18.486,-20.573 0,-0.683 0.033,-1.356 0.091,-2.021 l 18.395,-8.766 z"
             style="fill:#0070a6;fill-opacity:1;fill-rule:nonzero;stroke:none"
             id="path86" /></g><g
           id="g88"
           transform="translate(138.6289,316.6646)"><path
             d="m 0,0 -38.949,12.047 -0.876,7.148 z"
             style="fill:#6dcff6;fill-opacity:1;fill-rule:nonzero;stroke:none"
             id="path90" /></g><g
           id="g92"
           transform="translate(158.1309,316.6646)"><path
             d="m 0,0 38.949,12.047 0.875,7.148 z"
             style="fill:#6dcff6;fill-opacity:1;fill-rule:nonzero;stroke:none"
             id="path94" /></g><g
           id="g96"
           transform="translate(139.2593,312.269)"><path
             d="m 0,0 -41.521,12.222 c -1.851,0.544 -3.669,-0.944 -3.5,-2.866 l 1.784,-20.368 9.716,-2.948 c 1.503,-0.457 2.601,-1.749 2.807,-3.307 l 1.551,-11.747 c 0.31,-2.346 -1.516,-4.429 -3.882,-4.429 h -8.226 l -10e-4,0.002 0.383,-4.37 c 0.238,-2.713 2.08,-5.019 4.674,-5.85 L 1.219,-55.644 Z"
             style="fill:#f0513c;fill-opacity:1;fill-rule:nonzero;stroke:none"
             id="path98" /></g><g
           id="g100"
           transform="translate(105.6431,285.1006)"><path
             d="M 0,0 -1.008,7.637 C -1.142,8.648 -1.856,9.49 -2.833,9.786 l -13.803,4.015 1.086,-12.399 c 0.213,-2.423 2.241,-4.281 4.673,-4.281 h 8.353 C -0.985,-2.879 0.202,-1.525 0,0"
             style="fill:#0070a6;fill-opacity:1;fill-rule:nonzero;stroke:none"
             id="path102" /></g><g
           id="g104"
           transform="translate(190.5454,278.8262)"><path
             d="m 0,0 c -2.367,0 -4.192,2.083 -3.882,4.429 l 1.551,11.747 c 0.206,1.557 1.304,2.85 2.807,3.306 l 9.705,2.945 1.785,20.372 c 0.168,1.922 -1.65,3.41 -3.5,2.866 l -41.522,-12.222 -1.219,-55.644 37.434,11.983 c 2.594,0.831 4.436,3.137 4.674,5.85 L 8.216,0 Z"
             style="fill:#00aeef;fill-opacity:1;fill-rule:nonzero;stroke:none"
             id="path106" /></g><g
           id="g108"
           transform="translate(191.1162,285.1006)"><path
             d="M 0,0 1.009,7.637 C 1.142,8.648 1.856,9.49 2.833,9.786 L 16.636,13.801 15.55,1.402 C 15.338,-1.021 13.309,-2.879 10.877,-2.879 H 2.524 C 0.985,-2.879 -0.201,-1.525 0,0"
             style="fill:#0070a6;fill-opacity:1;fill-rule:nonzero;stroke:none"
             id="path110" /></g><g
           id="g112"
           transform="translate(709.2812,271.6738)"><path
             d="M 0,0 C 0.649,0 1.022,0.341 1.022,0.892 1.022,1.46 0.649,1.801 0,1.801 H -0.794 V 0 Z m -0.324,-1.184 h -0.47 v -2.335 h -1.394 v 6.503 h 2.416 c 1.264,0 2.221,-0.924 2.221,-2.076 0,-0.891 -0.535,-1.605 -1.33,-1.913 l 1.379,-2.514 h -1.59 z m 0.212,-3.891 c 2.577,0 4.604,2.075 4.604,4.767 0,2.675 -2.027,4.751 -4.604,4.751 -2.595,0 -4.606,-2.076 -4.606,-4.751 0,-2.692 2.011,-4.767 4.606,-4.767 m 0,10.751 c 3.291,0 5.966,-2.692 5.966,-5.984 0,-3.308 -2.675,-6 -5.966,-6 -3.293,0 -5.936,2.692 -5.936,6 0,3.292 2.643,5.984 5.936,5.984"
             style="fill:#0070a6;fill-opacity:1;fill-rule:nonzero;stroke:none"
             id="path114" /></g></g></g></g></svg>
